<?xml version="1.0" encoding="utf-8"?>
<!-- Svg Vector Icons : http://www.onlinewebfonts.com/icon -->
<!DOCTYPE svg PUBLIC "-//W3C//DTD SVG 1.1//EN" "http://www.w3.org/Graphics/SVG/1.1/DTD/svg11.dtd">
<svg 
    version="1.1" 
    xmlns="http://www.w3.org/2000/svg" 
    xmlns:xlink="http://www.w3.org/1999/xlink" 
    x="0px" 
    y="0px" 
    viewBox="0 0 1000 1000" 
    enable-background="new 0 0 1000 1000" 
    xml:space="preserve"
    width="22px"
    height="22px"
>
<metadata> Svg Vector Icons : http://www.onlinewebfonts.com/icon </metadata>
<g transform="translate(0.000000,511.000000) scale(0.100000,-0.100000)">
    <path 
        d="M4496.3,4991.1c-931.6-93.4-1904.6-506-2640.7-1122.7C876.2,3051.8,237.7,1833.5,122.6,565.2c-47.8-506-26.1-632,126-731.9c97.7-67.3,260.6-67.3,367-2.2C724.1-101.5,771.9,15.8,771.9,233c0,369.2,97.7,896.9,238.9,1298.6c373.5,1051.1,1177,1941.5,2182.5,2412.7c1481.1,692.8,3231.4,477.8,4493.2-553.8c167.2-139,603.7-579.8,642.8-651.5l23.9-45.6h-714.5c-701.4,0-716.7,0-807.9-49.9c-234.5-123.8-232.4-453.9,0-573.3c95.6-49.9,97.7-49.9,1211.8-49.9c1077.2,0,1116.2,2.2,1200.9,43.4c47.8,26.1,106.4,76,128.1,115.1c41.3,67.3,43.4,117.3,43.4,1233.5v1164l-47.8,71.7c-102.1,147.7-284.5,191.1-438.7,102.1c-160.7-91.2-165-115.1-165-831.8v-634.1L8477,3570.8c-430,425.6-814.4,699.3-1350.8,959.9C6333.5,4917.2,5391,5082.3,4496.3,4991.1z"
        style="fill: #cccccc;"
    />
    <path 
        d="M9473.8,426.2c-171.6-63-230.2-175.9-232.4-440.9c-2.2-640.6-223.7-1418.1-575.5-2017.5c-768.8-1305.2-2152.1-2095.7-3665.8-2093.5c-1072.8,2.2-2041.4,377.9-2860.1,1109.7c-139,126-458.2,475.6-473.4,521.2c-4.4,10.9,269.3,19.5,707.9,19.5c701.5,0,716.7,0,807.9,49.9c228,119.4,232.4,445.2,8.7,573.3l-84.7,50l-1155.3-6.5c-1135.8-4.3-1155.3-4.3-1216.1-49.9c-32.6-26.1-80.3-78.2-104.2-119.4c-41.3-71.7-43.4-112.9-43.4-1214c0-1105.4,2.2-1142.3,43.4-1216.1c26.1-45.6,84.7-97.7,141.2-126c162.9-84.7,317.1-39.1,427.8,126c49.9,69.5,49.9,84.7,49.9,712.3v638.5l199.8-210.7c957.7-1012,2336.7-1576.6,3720-1524.5c1261.7,47.8,2417.1,551.6,3303.1,1435.5c881.7,883.9,1415.9,2108.7,1426.8,3285.7c4.3,351.8-10.9,390.9-180.2,479.9C9608.4,463.1,9586.7,465.3,9473.8,426.2z"
        style="fill: #cccccc;"
    />
</g>
</svg>